#!OML:ASF I:\Actors\actors\Patient Classification 2\Patient 1\Session 1\actor1.ASF
:FULLY-SPECIFIED
:DEGREES
81
root -0.755894 18.7238 5.47578 2.13774 -0.727108 -3.10223
lowerback 5.52443 0.628444 0.444487
upperback 0.235834 0.88799 0.77182
thorax -2.85979 0.440909 0.474634
lowerneck -10.5821 4.82156 7.75884
upperneck 23.234 5.24382 -0.305076
head 9.2897 3.09371 -0.814158
rclavicle 3.8763e-015 7.7526e-015
rhumerus -47.449 -2.22711 -85.0113
rradius 44.0246
rwrist 8.08496
rhand -1.64258 -38.2675
rfingers 7.12502
rthumb 24.0162 -66.785
lclavicle 3.8763e-015 7.7526e-015
lhumerus -40.588 1.64718 88.781
lradius 41.1099
lwrist -5.90846
lhand -6.42766 -25.0003
lfingers 7.12502
lthumb 19.4212 4.0498
rfemur 5.14386 1.5256 17.2358
rtibia 3.49861e-014
rfoot -16.8611 -12.1733
rtoes -8.262
lfemur -7.75373 -6.15601 -10.8697
ltibia 23.3251
lfoot -21.7233 11.2722
ltoes -55.7418
82
root -0.755672 18.7229 5.47901 2.12568 -0.725244 -3.12758
lowerback 5.5175 0.623646 0.459557
upperback 0.250498 0.882675 0.78347
thorax -2.84072 0.438159 0.478756
lowerneck -10.5711 4.81322 7.77806
upperneck 23.1916 5.24518 -0.371453
head 9.27505 3.08835 -0.840578
rclavicle -8.26199e-015 2.38542e-015
rhumerus -47.4244 -2.20977 -84.9981
rradius 44.0601
rwrist 8.00963
rhand -1.48291 -38.361
rfingers 7.12502
rthumb 24.1693 -66.8583
lclavicle -8.26199e-015 2.38542e-015
lhumerus -40.5529 1.67797 88.7877
lradius 41.0738
lwrist -5.92296
lhand -6.39019 -25.0163
lfingers 7.12502
lthumb 19.4572 4.03015
rfemur 5.16945 1.52525 17.264
rtibia 4.77083e-015
rfoot -16.9107 -12.1561
rtoes -8.11656
lfemur -7.72804 -6.17151 -10.8467
ltibia 23.3212
lfoot -21.7705 11.2629
ltoes -55.7406
83
root -0.755398 18.7232 5.48324 2.12486 -0.750506 -3.17062
lowerback 5.48437 0.629491 0.509436
upperback 0.263324 0.893259 0.788509
thorax -2.80831 0.442862 0.455583
lowerneck -10.5749 4.7985 7.77241
upperneck 23.175 5.2285 -0.384646
head 9.26925 3.07839 -0.846233
rclavicle 2.11209e-014 1.05356e-014
rhumerus -47.4014 -2.23975 -84.9912
rradius 44.0836
rwrist 7.99035
rhand -1.38121 -38.4263
rfingers 7.12502
rthumb 24.2668 -66.9105
lclavicle 2.11209e-014 1.05356e-014
lhumerus -40.5398 1.66157 88.8009
lradius 41.0584
lwrist -5.91917
lhand -6.40003 -25.0659
lfingers 7.12502
lthumb 19.4478 3.98156
rfemur 5.18205 1.55202 17.3116
rtibia 1.27222e-014
rfoot -16.8956 -12.1774
rtoes -8.34963
lfemur -7.70572 -6.18673 -10.8034
ltibia 23.3226
lfoot -21.8157 11.2881
ltoes -55.679
84
root -0.755386 18.7232 5.48726 2.11071 -0.7609 -3.19446
lowerback 5.48689 0.630575 0.539096
upperback 0.262895 0.89663 0.79024
thorax -2.80975 0.444167 0.44043
lowerneck -10.5552 4.78513 7.77551
upperneck 23.1837 5.21418 -0.398025
head 9.26834 3.07082 -0.853429
rclavicle 4.87022e-015 8.94531e-015
rhumerus -47.4189 -2.26773 -84.9851
rradius 44.1166
rwrist 7.99377
rhand -1.45504 -38.4722
rfingers 7.12502
rthumb 24.196 -66.9659
lclavicle 4.87022e-015 8.94531e-015
lhumerus -40.5513 1.63199 88.8215
lradius 41.0641
lwrist -5.88475
lhand -6.43411 -25.0403
lfingers 7.12502
lthumb 19.415 4.01048
rfemur 5.21467 1.56387 17.3406
rtibia -3.18055e-015
rfoot -16.8908 -12.1741
rtoes -8.48856
lfemur -7.67607 -6.17705 -10.7782
ltibia 23.3255
lfoot -21.8003 11.3086
ltoes -55.6328
85
root -0.755723 18.7226 5.48968 2.11062 -0.762178 -3.19567
lowerback 5.49388 0.631414 0.535785
upperback 0.258821 0.897531 0.785855
thorax -2.81785 0.444617 0.4376
lowerneck -10.5111 4.77899 7.79212
upperneck 23.1515 5.21288 -0.425603
head 9.25001 3.06844 -0.867103
rclavicle 1.83876e-015 -1.98785e-015
rhumerus -47.419 -2.26837 -84.9875
rradius 44.1129
rwrist 7.95825
rhand -1.57218 -38.4801
rfingers 7.12502
rthumb 24.0837 -66.9887
lclavicle 1.83876e-015 -1.98785e-015
lhumerus -40.5477 1.60865 88.837
lradius 41.0856
lwrist -5.83629
lhand -6.42476 -24.8971
lfingers 7.12502
lthumb 19.424 4.15269
rfemur 5.22571 1.56518 17.3438
rtibia 2.54444e-014
rfoot -16.9125 -12.163
rtoes -8.37923
lfemur -7.67479 -6.17327 -10.7756
ltibia 23.326
lfoot -21.7625 11.3298
ltoes -55.6629
86
root -0.755916 18.7222 5.49226 2.11754 -0.781821 -3.19888
lowerback 5.47068 0.639214 0.541066
upperback 0.271971 0.907402 0.770207
thorax -2.791 0.44942 0.41812
lowerneck -10.4769 4.77235 7.78082
upperneck 23.0831 5.19629 -0.373291
head 9.21738 3.06419 -0.850736
rclavicle 8.87077e-015 -7.55382e-015
rhumerus -47.3943 -2.25724 -85.0141
rradius 44.103
rwrist 7.89345
rhand -1.55231 -38.5427
rfingers 7.12502
rthumb 24.1027 -67.0488
lclavicle 8.87077e-015 -7.55382e-015
lhumerus -40.5096 1.62222 88.8177
lradius 41.0825
lwrist -5.83547
lhand -6.39522 -24.8743
lfingers 7.12502
lthumb 19.4524 4.17269
rfemur 5.22277 1.58457 17.347
rtibia -7.95139e-015
rfoot -16.8956 -12.181
rtoes -8.35726
lfemur -7.66769 -6.2234 -10.7785
ltibia 23.3256
lfoot -21.7923 11.379
ltoes -55.6755
87
root -0.755918 18.722 5.49541 2.11268 -0.793382 -3.18215
lowerback 5.45841 0.64687 0.523858
upperback 0.288728 0.915826 0.756345
thorax -2.76692 0.453794 0.41311
lowerneck -10.4587 4.7559 7.7322
upperneck 23.0391 5.16282 -0.282082
head 9.19327 3.05325 -0.816385
rclavicle -6.85807e-015 7.95139e-016
rhumerus -47.3918 -2.27057 -85.0197
rradius 44.1168
rwrist 7.88987
rhand -1.47298 -38.6474
rfingers 7.12502
rthumb 24.1788 -67.1434
lclavicle -6.85807e-015 7.95139e-016
lhumerus -40.4927 1.59076 88.8261
lradius 41.1139
lwrist -5.7838
lhand -6.38864 -24.9033
lfingers 7.12502
lthumb 19.4587 4.14298
rfemur 5.23651 1.5958 17.3276
rtibia 2.06736e-014
rfoot -16.8699 -12.1982
rtoes -8.54785
lfemur -7.63926 -6.28157 -10.809
ltibia 23.3266
lfoot -21.8472 11.4241
ltoes -55.6979
88
root -0.756381 18.7225 5.49702 2.12424 -0.794316 -3.14426
lowerback 5.46474 0.647747 0.461587
upperback 0.283494 0.913326 0.758573
thorax -2.77686 0.453329 0.450418
lowerneck -10.4651 4.7407 7.67159
upperneck 23.0582 5.14014 -0.227601
head 9.19661 3.04346 -0.790223
rclavicle -4.17448e-015 -1.98785e-016
rhumerus -47.4096 -2.27979 -84.993
rradius 44.1228
rwrist 7.93473
rhand -1.40569 -38.7171
rfingers 7.12502
rthumb 24.2433 -67.2045
lclavicle -4.17448e-015 -1.98785e-016
lhumerus -40.4922 1.5799 88.8529
lradius 41.1381
lwrist -5.73148
lhand -6.36555 -24.8942
lfingers 7.12502
lthumb 19.4809 4.14984
rfemur 5.22764 1.59485 17.2865
rtibia 9.54166e-015
rfoot -16.8757 -12.1909
rtoes -8.59723
lfemur -7.64691 -6.29082 -10.852
ltibia 23.3306
lfoot -21.8646 11.438
ltoes -55.7244
89
root -0.756983 18.7226 5.49831 2.13498 -0.816719 -3.14117
lowerback 5.47735 0.647024 0.425508
upperback 0.273186 0.9108 0.774015
thorax -2.79536 0.452596 0.486527
lowerneck -10.5297 4.72853 7.61269
upperneck 23.1642 5.12042 -0.191685
head 9.24187 3.03445 -0.768104
rclavicle -1.59525e-014 2.38542e-015
rhumerus -47.4364 -2.23611 -84.9785
rradius 44.1367
rwrist 7.93271
rhand -1.31944 -38.7149
rfingers 7.12502
rthumb 24.326 -67.1912
lclavicle -1.59525e-014 2.38542e-015
lhumerus -40.4984 1.67647 88.8355
lradius 41.1213
lwrist -5.81181
lhand -6.32643 -24.963
lfingers 7.12502
lthumb 19.5185 4.07725
rfemur 5.21451 1.61654 17.2838
rtibia 3.18055e-015
rfoot -16.8871 -12.1814
rtoes -8.39913
lfemur -7.65455 -6.24858 -10.8512
ltibia 23.3322
lfoot -21.8828 11.414
ltoes -55.6718
90
root -0.757154 18.7222 5.50062 2.12806 -0.835932 -3.14807
lowerback 5.49577 0.644727 0.416188
upperback 0.274771 0.907334 0.774826
thorax -2.80419 0.450979 0.492656
lowerneck -10.595 4.72712 7.63
upperneck 23.2789 5.1127 -0.208001
head 9.29499 3.03219 -0.774761
rclavicle -7.1811e-015 2.98177e-015
rhumerus -47.4595 -2.19736 -84.9933
rradius 44.1477
rwrist 7.93322
rhand -1.28418 -38.654
rfingers 7.12502
rthumb 24.3598 -67.1258
lclavicle -7.1811e-015 2.98177e-015
lhumerus -40.5188 1.7394 88.8079
lradius 41.1301
lwrist -5.90283
lhand -6.33985 -24.9901
lfingers 7.12502
lthumb 19.5056 4.05151
rfemur 5.22772 1.63631 17.2909
rtibia 1.27222e-014
rfoot -16.8831 -12.179
rtoes -8.37523
lfemur -7.63358 -6.20382 -10.8444
ltibia 23.3284
lfoot -21.9003 11.3827
ltoes -55.6541
